<svg width="236" height="40" viewBox="0 0 236 40" fill="none" xmlns="http://www.w3.org/2000/svg">
<g clip-path="url(#clip0)">
<path d="M10.6782 39.9914H16.483C13.2663 34.3399 10.0496 28.6884 6.83291 23.0368C6.55532 22.5976 6.26141 22.059 5.992 21.4292C5.91852 21.2469 5.61644 20.5508 5.39601 19.6807C5.34703 19.4984 4.88167 17.6587 5.07761 15.6285C5.48582 11.3028 8.17183 8.63449 8.63719 8.18701C11.8947 5.05463 15.789 4.95518 16.6136 4.95518C17.2586 4.95518 22.1244 5.02977 25.5125 9.10683C28.6231 12.8524 28.5986 17.7002 27.4801 20.8408C27.2923 21.3795 27.1209 21.7026 26.4024 23.0368C25.0962 25.44 23.2102 28.8375 20.7283 33.0306C18.8424 29.6993 16.9565 26.3681 15.0706 23.0368C14.5644 22.1418 14.0664 21.2137 13.5928 20.2525C13.5602 20.1862 13.5275 20.1199 13.4949 20.0536C13.4949 20.0536 13.1357 19.3078 12.9397 18.5703C12.556 17.1615 12.6295 16.3909 12.8662 15.6616C13.2908 14.3358 14.6868 12.8524 16.6054 12.8524C18.573 12.8524 19.9936 14.402 20.3936 15.8025C20.6957 16.8549 20.4099 17.841 20.1977 18.5703C20.0507 19.0923 19.8793 19.4569 19.0302 21.0729C18.5812 21.9347 18.1811 22.6888 17.8545 23.302C18.8098 24.9593 19.765 26.6167 20.7283 28.2823C21.7489 26.5504 22.7694 24.8185 23.7899 23.0865C24.1083 22.5313 24.5084 21.7441 24.8594 20.7662C25.1207 20.037 25.5289 18.9183 25.6268 17.5676C25.6513 17.2775 25.782 15.1313 24.7369 12.9767C23.398 10.2173 20.3283 7.83068 16.5973 7.83068C13.3234 7.83068 10.7272 9.6869 9.32298 11.568C8.53922 12.6204 8.13918 13.7474 8.07386 13.9297C7.43706 15.7196 7.52686 17.2361 7.57585 17.7416C7.68198 18.9349 8.00855 19.805 8.49023 21.0811C8.65352 21.5121 8.91477 22.2744 9.37197 23.0865C12.556 28.7215 15.7482 34.3482 18.9322 39.9832C20.116 39.9832 21.2998 39.9832 22.4836 39.9832C25.3166 35.0857 28.1414 30.1965 30.9744 25.2991C31.154 24.9925 31.3336 24.6444 31.5132 24.2715C31.7173 23.8323 31.8888 23.418 32.0194 23.0285C32.2398 22.4485 32.5011 21.6364 32.7215 20.6502C32.9828 19.4735 33.4318 16.9544 32.9828 14.1037C32.199 9.19799 29.366 6.01589 28.7047 5.30323C23.5613 -0.240589 16.5319 -0.0334211 15.8788 -0.000274187C9.40462 0.298048 3.95912 4.49941 1.55885 9.71176C1.19146 10.5156 -0.931227 15.3053 0.456684 20.8408C0.693445 21.7689 0.971027 22.5147 1.1833 23.0285C1.29759 23.36 1.46088 23.7826 1.68131 24.255C1.90991 24.7522 2.11401 25.1168 2.21198 25.2908C2.66918 26.0946 6.04098 31.9616 10.6782 39.9914Z" fill="#58C4BB"/>
<path d="M43.5804 34.6965L43.613 12.0323H48.6177L48.585 17.7999L47.491 17.601C47.9645 15.6453 48.781 14.1786 49.9648 13.1842C51.1404 12.198 52.5773 11.7008 54.2673 11.7008C55.5491 11.7008 56.6594 11.9992 57.5901 12.5958C58.5208 13.1924 59.2474 14.0294 59.7699 15.1067C60.2925 16.184 60.5537 17.4601 60.5537 18.9351C60.5537 20.5179 60.2843 21.9184 59.7536 23.1199C59.2148 24.3215 58.48 25.3325 57.5411 26.1363C56.6022 26.9401 55.5001 27.5368 54.251 27.9262C53.0018 28.3157 51.6548 28.5146 50.226 28.5146C49.6055 28.5146 48.9851 28.4732 48.3646 28.3986C47.7441 28.324 47.1563 28.2163 46.6011 28.092L48.5605 27.2467V34.7048H43.5804V34.6965ZM48.585 26.2938L47.3604 23.9486C47.9401 24.2055 48.4952 24.4044 49.0259 24.537C49.5566 24.6696 50.1036 24.7359 50.6587 24.7359C51.6874 24.7359 52.5691 24.5287 53.3202 24.1143C54.0714 23.7 54.6428 23.1034 55.0511 22.3244C55.4593 21.5455 55.6634 20.5842 55.6634 19.4572C55.6634 18.1728 55.3858 17.1866 54.8306 16.4906C54.2755 15.7945 53.5244 15.4464 52.5855 15.4464C51.7935 15.4464 51.0914 15.7033 50.471 16.2254C49.8505 16.7475 49.377 17.5844 49.0422 18.7363C48.7075 19.8881 48.5524 21.388 48.5769 23.2277V26.2938H48.585ZM69.02 28.5063C67.779 28.5063 66.685 28.208 65.7298 27.6113C64.7746 27.0147 64.0398 26.1777 63.5173 25.1005C62.9948 24.0232 62.7335 22.7636 62.7335 21.3051C62.7335 19.6975 63.003 18.2888 63.55 17.0872C64.097 15.8856 64.8399 14.8829 65.7788 14.0874C66.7177 13.2919 67.8198 12.6952 69.0853 12.2975C70.3507 11.8997 71.6815 11.6926 73.0939 11.6926C74.245 11.6926 75.4207 11.8086 76.6045 12.0489C77.7883 12.2892 78.8251 12.5958 79.6987 12.9604L79.666 28.1666H74.7022L74.7349 22.399L75.8289 22.5979C75.3554 24.5701 74.5308 26.0534 73.3388 27.023C72.1468 27.9925 70.7099 28.5063 69.02 28.5063ZM70.7181 24.7939C71.5345 24.7939 72.2285 24.5287 72.8163 23.9983C73.4041 23.468 73.8695 22.631 74.2124 21.4875C74.5553 20.3439 74.7186 18.844 74.6941 16.9795L74.7267 13.9548L75.9432 16.3C75.3635 16.0182 74.8084 15.8193 74.2777 15.695C73.7389 15.579 73.2 15.5127 72.6449 15.5127C71.6407 15.5127 70.7589 15.7116 69.9997 16.1177C69.2404 16.5237 68.6526 17.1121 68.2362 17.891C67.8198 18.67 67.6076 19.6312 67.6076 20.7582C67.6076 22.0427 67.8851 23.0288 68.4403 23.7414C68.9955 24.4458 69.7547 24.7939 70.7181 24.7939ZM83.1685 28.1831V12.0323H88.0752V16.4326L87.6261 16.1425C87.9935 15.1233 88.467 14.2863 89.0549 13.6316C89.6427 12.977 90.3448 12.4964 91.153 12.1815C91.9695 11.8666 92.8757 11.7091 93.8799 11.7091V16.3994C92.9818 16.3994 92.2062 16.4408 91.5531 16.532C90.9 16.6232 90.353 16.7557 89.9039 16.938C89.4549 17.1204 89.0957 17.3524 88.8263 17.6341C88.5568 17.9159 88.3691 18.2473 88.2466 18.6285C88.1323 19.0097 88.067 19.4572 88.067 19.9793V28.1831H83.1685ZM103.228 28.5063C101.75 28.5063 100.517 28.2246 99.5213 27.6611C98.5253 27.0976 97.7905 26.2772 97.3088 25.1999C96.8272 24.1226 96.5904 22.8299 96.5904 21.3051V6.95255H101.497V21.1477C101.497 21.8852 101.603 22.5067 101.815 23.0039C102.028 23.5011 102.362 23.8823 102.828 24.1475C103.285 24.4044 103.881 24.537 104.608 24.537C105.187 24.537 105.693 24.479 106.134 24.3547C106.575 24.2386 107.114 24.0646 107.751 23.8492V27.5616C107.049 27.8848 106.306 28.1251 105.538 28.2743C104.763 28.4317 103.995 28.5063 103.228 28.5063ZM98.5416 15.6122V11.9992H106.787V15.6122H98.5416ZM113.327 9.1651C112.47 9.1651 111.833 9.07395 111.417 8.89164C111 8.70933 110.723 8.46073 110.584 8.16241C110.445 7.8558 110.372 7.53262 110.372 7.18458C110.372 6.7951 110.437 6.44706 110.584 6.14045C110.723 5.83384 111 5.59353 111.417 5.41122C111.833 5.22891 112.47 5.13776 113.327 5.13776C114.184 5.13776 114.821 5.22891 115.237 5.41122C115.654 5.59353 115.931 5.84213 116.07 6.14045C116.209 6.44706 116.282 6.77853 116.282 7.15143C116.282 7.52433 116.209 7.8558 116.07 8.16241C115.931 8.46902 115.654 8.70933 115.237 8.89164C114.821 9.07395 114.184 9.1651 113.327 9.1651ZM110.894 28.1831V12.0323H115.801V28.1831H110.894ZM125.81 28.5063C124.357 28.5063 123.181 28.1914 122.283 27.5616C121.385 26.9318 120.732 26.0203 120.324 24.827C119.915 23.6337 119.711 22.225 119.711 20.5925V12.0323H124.716V20.3025C124.716 20.866 124.74 21.4212 124.781 21.9598C124.822 22.5067 124.928 22.9874 125.1 23.4265C125.271 23.8575 125.541 24.2055 125.916 24.4541C126.292 24.7027 126.806 24.827 127.475 24.827C128.096 24.827 128.643 24.6944 129.125 24.4375C129.606 24.1806 130.015 23.816 130.341 23.3437C130.676 22.8796 130.929 22.3161 131.109 21.6698C131.288 21.0151 131.378 20.2942 131.378 19.4904V12.0323H136.35V28.1831H131.378V24.4375L131.86 24.6696C131.541 25.5148 131.092 26.2275 130.513 26.7992C129.933 27.371 129.247 27.8019 128.455 28.0837C127.68 28.3654 126.798 28.5063 125.81 28.5063ZM154.915 28.5063C152.605 28.5063 150.801 27.8517 149.494 26.5506C148.188 25.2496 147.535 23.2111 147.535 20.4268V12.0323H152.507V20.435C152.507 21.9515 152.719 23.0785 153.152 23.8077C153.576 24.537 154.295 24.9016 155.299 24.9016C155.944 24.9016 156.524 24.6861 157.046 24.2635C157.569 23.8409 158.001 23.1697 158.328 22.2415C158.663 21.3217 158.826 20.1284 158.826 18.6783C158.826 17.5927 158.72 16.4988 158.508 15.3884C158.295 14.278 158.001 13.1593 157.642 12.0323H162.516C162.9 13.035 163.186 14.0294 163.365 15.0321C163.545 16.0348 163.635 17.1286 163.635 18.3219C163.635 20.0787 163.398 21.6035 162.932 22.8796C162.459 24.1641 161.822 25.2165 161.006 26.0534C160.189 26.8904 159.259 27.5119 158.214 27.9097C157.169 28.3074 156.066 28.5063 154.915 28.5063ZM169.48 9.1651C168.623 9.1651 167.986 9.07395 167.57 8.89164C167.153 8.70933 166.876 8.46073 166.737 8.16241C166.598 7.8558 166.525 7.53262 166.525 7.18458C166.525 6.7951 166.59 6.44706 166.737 6.14045C166.876 5.83384 167.153 5.59353 167.57 5.41122C167.986 5.22891 168.623 5.13776 169.48 5.13776C170.337 5.13776 170.974 5.22891 171.391 5.41122C171.807 5.59353 172.085 5.84213 172.223 6.14045C172.362 6.44706 172.436 6.77853 172.436 7.15143C172.436 7.52433 172.362 7.8558 172.223 8.16241C172.085 8.46902 171.807 8.70933 171.391 8.89164C170.974 9.07395 170.337 9.1651 169.48 9.1651ZM167.039 28.1831V12.0323H171.946V28.1831H167.039ZM181.547 28.5063C180.306 28.5063 179.212 28.208 178.257 27.6113C177.301 27.0147 176.567 26.1777 176.044 25.1005C175.522 24.0232 175.26 22.7636 175.26 21.3051C175.26 19.6975 175.53 18.2888 176.077 17.0872C176.624 15.8856 177.367 14.8829 178.306 14.0874C179.245 13.2919 180.347 12.6952 181.612 12.2975C182.878 11.8997 184.208 11.6926 185.621 11.6926C186.772 11.6926 187.948 11.8086 189.131 12.0489C190.315 12.2892 191.352 12.5958 192.226 12.9604L192.193 28.1666H187.221L187.254 22.399L188.348 22.5979C187.874 24.5701 187.049 26.0534 185.858 27.023C184.666 27.9925 183.237 28.5063 181.547 28.5063ZM183.245 24.7939C184.061 24.7939 184.755 24.5287 185.343 23.9983C185.931 23.468 186.396 22.631 186.739 21.4875C187.082 20.3439 187.245 18.844 187.221 16.9795L187.254 13.9548L188.47 16.3C187.89 16.0182 187.335 15.8193 186.805 15.695C186.266 15.579 185.727 15.5127 185.172 15.5127C184.168 15.5127 183.286 15.7116 182.527 16.1177C181.767 16.5237 181.179 17.1121 180.763 17.891C180.347 18.67 180.134 19.6312 180.134 20.7582C180.134 22.0427 180.412 23.0288 180.967 23.7414C181.522 24.4458 182.282 24.7939 183.245 24.7939ZM195.148 34.9534C194.487 34.9534 193.85 34.8871 193.238 34.7545C192.626 34.6219 192.079 34.4396 191.589 34.1993L191.556 30.8763C192.005 31.0503 192.422 31.1663 192.805 31.2326C193.189 31.2989 193.564 31.3321 193.932 31.3321C194.446 31.3321 194.854 31.2161 195.148 30.9757C195.45 30.7354 195.663 30.404 195.81 29.9648C195.948 29.5339 196.022 29.0118 196.022 28.3986V12.0323H200.896V28.2163C200.896 29.6499 200.667 30.868 200.218 31.8624C199.769 32.8568 199.116 33.6275 198.259 34.1579C197.402 34.6882 196.365 34.9534 195.148 34.9534ZM198.39 9.1651C197.532 9.1651 196.895 9.07395 196.479 8.89164C196.063 8.70933 195.793 8.46073 195.663 8.16241C195.532 7.8558 195.467 7.53262 195.467 7.18458C195.467 6.7951 195.532 6.44706 195.679 6.14045C195.818 5.83384 196.087 5.59353 196.495 5.41122C196.904 5.22891 197.54 5.13776 198.422 5.13776C199.279 5.13776 199.916 5.22891 200.333 5.41122C200.749 5.59353 201.018 5.84213 201.149 6.14045C201.28 6.44706 201.345 6.77853 201.345 7.15143C201.345 7.52433 201.271 7.8558 201.133 8.16241C200.994 8.46902 200.724 8.70933 200.316 8.89164C199.908 9.07395 199.263 9.1651 198.39 9.1651ZM210.489 28.5063C209.248 28.5063 208.154 28.208 207.199 27.6113C206.243 27.0147 205.509 26.1777 204.986 25.1005C204.464 24.0232 204.202 22.7636 204.202 21.3051C204.202 19.6975 204.472 18.2888 205.019 17.0872C205.566 15.8856 206.309 14.8829 207.248 14.0874C208.187 13.2919 209.289 12.6952 210.554 12.2975C211.82 11.8997 213.15 11.6926 214.563 11.6926C215.714 11.6926 216.89 11.8086 218.073 12.0489C219.257 12.2892 220.294 12.5958 221.168 12.9604L221.135 28.1666H216.163L216.196 22.399L217.29 22.5979C216.816 24.5701 215.991 26.0534 214.8 27.023C213.608 27.9925 212.179 28.5063 210.489 28.5063ZM212.187 24.7939C213.003 24.7939 213.697 24.5287 214.285 23.9983C214.873 23.468 215.338 22.631 215.681 21.4875C216.024 20.3439 216.187 18.844 216.163 16.9795L216.196 13.9548L217.412 16.3C216.832 16.0182 216.277 15.8193 215.747 15.695C215.208 15.579 214.669 15.5127 214.114 15.5127C213.11 15.5127 212.228 15.7116 211.469 16.1177C210.709 16.5237 210.121 17.1121 209.705 17.891C209.289 18.67 209.076 19.6312 209.076 20.7582C209.076 22.0427 209.354 23.0288 209.909 23.7414C210.464 24.4458 211.224 24.7939 212.187 24.7939ZM224.637 28.1831V12.0323H229.544V16.4326L229.095 16.1425C229.462 15.1233 229.936 14.2863 230.524 13.6316C231.112 12.977 231.814 12.4964 232.622 12.1815C233.438 11.8666 234.345 11.7091 235.349 11.7091V16.3994C234.451 16.3994 233.675 16.4408 233.022 16.532C232.369 16.6232 231.822 16.7557 231.373 16.938C230.924 17.1204 230.565 17.3524 230.295 17.6341C230.026 17.9159 229.838 18.2473 229.715 18.6285C229.601 19.0097 229.536 19.4572 229.536 19.9793V28.1831H224.637Z" fill="#58C4BB"/>
</g>
<defs>
<clipPath id="clip0">
<rect width="235.349" height="40" fill="white"/>
</clipPath>
</defs>
</svg>
